<svg width="158" height="193" viewBox="0 0 158 193" fill="none" xmlns="http://www.w3.org/2000/svg">
  <path d="M124.933 95.2591L99.4471 84.5827C99.3982 84.6314 99.3493 84.6314 99.3493 84.6802C99.2514 84.7289 99.2025 84.8264 99.1047 84.8752C99.0558 84.9239 99.0069 84.9239 98.9579 84.9727C98.8601 85.0214 98.8112 85.0702 98.7134 85.1189C98.6644 85.1677 98.6155 85.1677 98.5666 85.2164C98.4688 85.2652 98.4199 85.3139 98.322 85.3627C98.2731 85.4114 98.2242 85.4114 98.1264 85.4602C98.0285 85.5089 97.9307 85.5577 97.8329 85.6064C97.7839 85.6064 97.735 85.6552 97.6861 85.6552C97.5883 85.7039 97.4904 85.7039 97.3926 85.7527C97.3437 85.7527 97.2948 85.8014 97.1969 85.8014C97.0013 85.8502 96.8545 85.8989 96.6589 85.8989H96.61C96.561 86.2402 96.4143 86.5814 96.2675 86.9227C96.1208 87.3127 95.8762 87.654 95.6316 87.9952C95.5338 88.0927 95.436 88.239 95.3381 88.3365C95.2892 88.3852 95.2403 88.434 95.2403 88.434C95.1425 88.5315 95.0935 88.5802 94.9957 88.6777C94.9468 88.7265 94.8979 88.7752 94.849 88.7752C94.7511 88.824 94.7022 88.9215 94.6044 88.9702C94.5555 89.019 94.5066 89.019 94.4576 89.0677C94.3598 89.1165 94.262 89.1652 94.1641 89.2627C94.1152 89.3115 94.0663 89.3115 94.0174 89.3602C93.9195 89.409 93.8217 89.4577 93.675 89.5065L93.6261 89.5552L93.5282 89.604C93.3815 89.6527 93.1858 89.7015 93.0391 89.7502C92.9901 89.7502 92.9412 89.799 92.8923 89.799C92.7456 89.8477 92.6477 89.8477 92.5499 89.8477C92.501 89.8477 92.4031 89.8477 92.3542 89.8477C92.2564 89.8477 92.1096 89.8477 92.0118 89.8477C91.9629 89.8477 91.9629 89.8477 91.914 89.8477H91.8161C91.5716 90.5302 91.1802 91.164 90.6422 91.7003C90.5443 91.7978 90.4465 91.8953 90.3487 91.9928C90.2997 92.0415 90.2997 92.0415 90.2508 92.0903C90.2019 92.139 90.1041 92.1878 90.0552 92.2853C90.0062 92.334 89.9573 92.334 89.9084 92.3828C89.8595 92.4315 89.7617 92.4803 89.7127 92.529C89.6638 92.5778 89.6149 92.5778 89.5171 92.6265C89.4682 92.6753 89.3703 92.724 89.2725 92.7728C89.2236 92.8215 89.1747 92.8215 89.0768 92.8703C88.979 92.919 88.9301 92.9678 88.8322 92.9678C88.7833 93.0165 88.6855 93.0165 88.6366 93.0653C88.5387 93.114 88.4409 93.114 88.392 93.1628C88.3431 93.1628 88.2452 93.2115 88.1474 93.2115C88.0496 93.2115 87.9518 93.2603 87.8539 93.2603C87.7561 93.2603 87.7072 93.2603 87.6093 93.309C87.5115 93.309 87.4137 93.309 87.3158 93.309H87.218C87.1691 93.309 87.0713 93.309 87.0223 93.309C86.9245 93.309 86.8756 93.309 86.7778 93.309H86.7288C86.6799 93.4065 86.631 93.504 86.5821 93.6015C86.3864 93.9915 86.0929 94.3815 85.7994 94.7228C85.5059 95.0153 85.2124 95.2591 84.9189 95.5028C84.7722 95.6003 84.6254 95.6978 84.4298 95.7953C84.3809 95.7953 84.3809 95.8441 84.3319 95.8441C84.1363 95.9416 83.9406 95.9903 83.7939 96.0878C83.7449 96.0878 83.696 96.1366 83.6471 96.1366C83.4514 96.1853 83.3047 96.2341 83.109 96.2828C83.0601 96.2828 83.0112 96.2828 82.9623 96.3316C82.7177 96.3803 82.4731 96.3803 82.2285 96.3803H82.0818C82.0329 96.3803 81.935 96.3803 81.8861 96.3803H81.8372H81.7883C81.6415 96.3803 81.4459 96.3316 81.2502 96.3316H81.1524C80.9567 96.2828 80.81 96.2341 80.6632 96.1853C80.6143 96.1853 80.6143 96.1853 80.5654 96.1366C80.4186 96.0878 80.223 96.0391 80.1251 95.9416L80.0762 95.8928C79.9295 95.7953 79.7338 95.7466 79.5381 95.6003L79.4403 95.5516C79.2935 95.4541 79.0979 95.3566 78.9511 95.2103C78.9022 95.2103 78.9022 95.1616 78.8533 95.1616C78.7066 95.0641 78.5598 94.9178 78.4131 94.8203L78.3641 94.7715C78.2174 94.6253 78.0706 94.479 77.9239 94.284L77.875 94.1865L77.8261 94.1378C77.8261 94.1865 77.7771 94.1865 77.7771 94.2353C77.6793 94.3328 77.6304 94.4303 77.5326 94.5765C77.4836 94.6253 77.4347 94.674 77.4347 94.7228C77.288 94.8691 77.1412 95.0153 77.0434 95.1616C76.8966 95.3078 76.7499 95.4541 76.5542 95.6003C76.5053 95.6491 76.4564 95.6978 76.4075 95.7466C76.3096 95.8441 76.1629 95.9416 76.0651 95.9903C76.0161 96.0391 75.9183 96.0878 75.8694 96.1366C75.7716 96.2341 75.6248 96.2828 75.527 96.3803C75.4781 96.4291 75.4292 96.4291 75.3313 96.4778C75.1846 96.5753 75.0867 96.6241 74.94 96.6728C74.8911 96.7216 74.8422 96.7216 74.7932 96.7703C74.5976 96.8678 74.4019 96.9166 74.2062 97.0141C74.1573 97.0141 74.1084 97.0628 74.0595 97.0628C73.9127 97.1116 73.766 97.1603 73.6192 97.2091C73.5703 97.2091 73.5214 97.2578 73.4236 97.2578C73.2768 97.3066 73.1301 97.3066 73.0322 97.3066C72.9344 97.3066 72.8855 97.3066 72.7877 97.3553C72.6409 97.3553 72.4942 97.3553 72.3474 97.4041C72.2985 97.4041 72.2496 97.4041 72.2007 97.4041C71.9561 97.4041 71.6626 97.4041 71.418 97.3553C71.3691 97.3553 71.3202 97.3553 71.2713 97.3066C71.0267 97.2578 70.831 97.2091 70.6353 97.1116C70.5864 97.1116 70.5375 97.0628 70.4886 97.0628C70.244 96.9653 69.9994 96.8678 69.7549 96.6728C69.7059 96.6241 69.657 96.6241 69.6081 96.5753C69.3635 96.3803 69.1189 96.2341 68.9233 96.0391C68.1895 95.3078 67.7493 94.4303 67.6025 93.4065H67.5047C67.2601 93.3578 66.9666 93.309 66.722 93.2115C66.6731 93.2115 66.6242 93.1628 66.5753 93.1628C66.3307 93.0653 66.0861 92.919 65.8415 92.8215C65.7926 92.7728 65.7437 92.7728 65.6948 92.724C65.4502 92.529 65.2056 92.3828 65.01 92.1878C64.2762 91.4565 63.836 90.5302 63.6892 89.5065C63.6892 89.5065 63.6892 89.5065 63.6403 89.5065C63.5914 89.5065 63.5425 89.5065 63.4936 89.4577C63.2979 89.409 63.0533 89.3602 62.8576 89.2627C62.8087 89.2627 62.7598 89.214 62.7109 89.214C62.4663 89.1165 62.2217 88.9702 61.9771 88.8727C61.9282 88.824 61.8793 88.824 61.8304 88.7752C61.5858 88.5802 61.3412 88.434 61.1456 88.239C60.4118 87.5077 60.0205 86.6302 59.8737 85.6552C59.727 85.6552 59.5802 85.6064 59.4335 85.5577C59.3357 85.5089 59.1889 85.5089 59.0911 85.4602C58.8465 85.3627 58.6508 85.2652 58.5041 85.2164C58.4552 85.1677 58.3084 85.1189 58.1617 85.0214C57.8682 84.8264 57.5747 84.6314 57.3301 84.3877C57.1344 84.1927 56.9877 83.9977 56.792 83.7539L28.714 95.8441C29.2521 95.9416 29.7901 96.1366 30.2304 96.3316L77.9728 117.002C78.462 117.197 78.9022 117.441 79.2446 117.733C79.587 117.489 80.0273 117.246 80.5165 117.002L128.259 96.3316C128.503 96.2341 128.748 96.1366 129.042 96.0391C127.378 95.8928 125.96 95.6978 124.933 95.2591Z" fill="#718D45"/>
  <path d="M103.899 137.672C101.061 137.672 97.9308 136.843 95.5339 135.332L80.7122 125.777V192.76C80.7122 192.76 109.377 177.794 124.346 169.896C131.243 166.24 132.417 162.876 132.417 153.808C132.417 151.663 132.466 139.086 132.564 126.313L108.105 136.892C106.931 137.428 105.464 137.672 103.899 137.672Z" fill="#99CC00"/>
  <path d="M54.1993 137.672C52.634 137.672 51.1665 137.428 49.9925 136.892L25.4365 126.264C25.4854 139.085 25.5832 151.663 25.5832 153.808C25.5832 162.876 26.7572 166.288 33.6544 169.896C48.6229 177.793 77.2879 192.76 77.2879 192.76V125.874L62.564 135.332C60.1671 136.843 57.0365 137.672 54.1993 137.672Z" fill="#99CC00"/>
  <path d="M76.4075 119.926L63.4935 114.32L28.665 99.2561C27.8824 98.9148 26.9041 98.7686 25.8279 98.7686C25.6322 98.7686 25.4366 98.7686 25.2409 98.7686C23.2353 98.8661 20.9852 99.4998 19.322 100.572L4.45142 110.127C3.17959 110.956 2.64151 111.785 2.69042 112.224C2.69042 112.516 3.08176 112.809 3.66875 113.052L25.4366 122.461L51.4112 133.723C53.7592 134.746 58.0149 134.161 60.7053 132.406L75.6248 122.803C76.5542 122.218 77.0923 121.633 77.288 121.145C77.288 121.145 77.288 121.096 77.3369 121.096C77.3369 120.901 77.3369 120.706 77.3369 120.511C77.1412 120.316 76.8477 120.073 76.4075 119.926Z" fill="#99CC00"/>
  <path d="M153.695 110.128L138.727 100.524C137.064 99.4517 134.765 98.818 132.71 98.7205C131.487 98.6717 130.313 98.818 129.433 99.208L92.1586 115.344L81.6905 119.927C81.2503 120.122 80.9568 120.317 80.81 120.561C80.81 120.756 80.81 120.951 80.81 121.146C81.0057 121.585 81.5438 122.218 82.4732 122.852L97.4416 132.456C100.132 134.211 104.388 134.796 106.736 133.772L132.564 122.56L154.478 113.053C155.065 112.809 155.408 112.468 155.456 112.224C155.505 111.786 154.967 110.957 153.695 110.128Z" fill="#99CC00"/>
  <path fill-rule="evenodd" clip-rule="evenodd" d="M94.6044 26.7148L116.861 32.3211C117.497 32.4674 117.889 33.1499 117.742 33.7836C117.595 34.4174 116.91 34.8074 116.274 34.6611L94.0174 29.0548C93.3815 28.9086 92.9902 28.2261 93.1369 27.5923C93.2837 26.9585 93.9196 26.5685 94.6044 26.7148Z" fill="#FF6600"/>
  <path fill-rule="evenodd" clip-rule="evenodd" d="M88.9302 2.43753L94.8491 27.3491C95.0448 28.0804 94.6534 28.7629 93.9686 28.9579C93.3327 29.1041 92.6479 28.6654 92.5011 27.9341L86.5822 3.02254C86.3866 2.29128 86.7779 1.60877 87.4627 1.41376C88.0986 1.26751 88.7346 1.70627 88.9302 2.43753Z" fill="#FF6600"/>
  <path fill-rule="evenodd" clip-rule="evenodd" d="M82.6688 0.0487324L87.3648 1.21875C88.0007 1.365 88.3921 2.04751 88.2453 2.68127C88.0986 3.31502 87.4137 3.70503 86.7778 3.55878L82.0818 2.38876C81.4459 2.24251 81.0546 1.56 81.2013 0.926244C81.3481 0.243735 81.984 -0.14627 82.6688 0.0487324Z" fill="#FF6600"/>
  <path fill-rule="evenodd" clip-rule="evenodd" d="M111.627 35.3442C113.78 35.8804 115.1 38.0255 114.562 40.1705C114.024 42.2668 111.872 43.5343 109.72 42.998C107.567 42.4618 106.247 40.3167 106.785 38.1717C107.323 36.0754 109.475 34.8079 111.627 35.3442Z" fill="#FF6600"/>
  <path fill-rule="evenodd" clip-rule="evenodd" d="M97.5394 31.7851C99.6917 32.3213 101.012 34.4664 100.474 36.6114C99.9363 38.7077 97.7351 39.9752 95.5828 39.4389C93.4304 38.9027 92.1097 36.7577 92.6478 34.6126C93.1859 32.5164 95.3871 31.2488 97.5394 31.7851Z" fill="#FF6600"/>
  <path fill-rule="evenodd" clip-rule="evenodd" d="M124.003 14.2348L96.9036 7.40967C95.6317 7.11717 93.8708 8.43344 94.311 10.5297L97.1482 23.7411C97.2949 24.4724 97.9308 25.1549 98.6156 25.3012L113.975 29.2012C114.611 29.3475 115.541 29.055 115.981 28.5187L124.737 18.2811C126.156 16.5748 125.226 14.5273 124.003 14.2348Z" fill="#FF6600"/>
  <path d="M56.7429 32.273L54.933 25.5454L46.4216 27.7879C47.2531 30.4205 48.6717 33.1505 50.5305 35.6855C52.5361 34.1255 54.7373 32.9068 56.7429 32.273Z" fill="#99CC00"/>
  <path d="M52.1449 15.1605L49.748 6.19043C49.161 6.33668 48.574 6.58043 47.9381 6.87294C46.9109 9.50547 46.0793 12.4305 45.688 15.453C47.8403 15.648 50.1394 15.5505 52.1449 15.1605Z" fill="#99CC00"/>
  <path d="M65.597 31.688C65.8905 28.5192 65.7926 25.4966 65.2056 22.7666L56.7431 25.0579L58.553 31.7855C60.5586 31.3467 63.0533 31.3467 65.597 31.688Z" fill="#99CC00"/>
  <path d="M61.0477 10.6272C62.4173 9.5547 63.5913 8.43344 64.4718 7.36093C61.8792 5.99591 58.9932 5.26465 55.9603 5.26465C57.7703 6.72717 59.5312 8.62844 61.0477 10.6272Z" fill="#99CC00"/>
  <path d="M59.6781 11.6994C57.8192 9.26187 55.618 7.16559 53.4168 5.36182C52.7319 5.41057 52.096 5.50807 51.509 5.70307L53.9059 14.6732C55.8626 13.9907 57.8682 12.9669 59.6781 11.6994Z" fill="#99CC00"/>
  <path d="M64.7163 20.9621C63.8358 18.1833 62.4172 15.5507 60.6073 13.0645C58.6017 14.6245 56.4005 15.8432 54.4439 16.5257L56.2538 23.2533L64.7163 20.9621Z" fill="#99CC00"/>
  <path d="M66.5262 20.5235L73.7659 18.5735C72.3473 14.1372 69.608 10.5784 66.0371 8.28711C65.0098 9.50588 63.6402 10.7734 62.0259 12.0409C64.1293 14.9172 65.6946 17.9885 66.5262 20.5235Z" fill="#99CC00"/>
  <path d="M45.5412 17.1117C45.1987 20.183 45.2966 23.2055 45.9325 26.033L54.395 23.7417L52.5851 17.0142C50.5796 17.4042 48.0848 17.4529 45.5412 17.1117Z" fill="#99CC00"/>
  <path d="M65.45 40.658C68.0915 39.2443 70.1949 37.148 71.8092 34.6617C70.4395 34.1255 68.8742 33.7355 67.1621 33.4917C66.8686 35.978 66.3305 38.4643 65.45 40.658Z" fill="#99CC00"/>
  <path d="M51.509 36.952C53.3189 39.3408 55.4223 41.5834 57.7214 43.3384C58.4062 43.2896 59.0421 43.1921 59.6291 42.9971L57.2322 34.1245C55.3245 34.7583 53.3678 35.7333 51.509 36.952Z" fill="#99CC00"/>
  <path d="M58.9933 33.6382L61.3902 42.6083C61.9772 42.4621 62.5642 42.2183 63.2001 41.9258C64.2762 39.2933 65.01 36.2707 65.3524 33.2969C63.1512 33.1019 60.9499 33.2482 58.9933 33.6382Z" fill="#99CC00"/>
  <path d="M45.6879 8.04346C43.0954 9.50598 40.9431 11.6023 39.3777 14.0885C40.6496 14.576 42.2638 14.966 43.9759 15.2098C44.2205 12.7235 44.8564 10.1885 45.6879 8.04346Z" fill="#99CC00"/>
  <path d="M66.9665 22.2792C67.6024 24.8142 67.7492 28.2755 67.3578 31.8343C69.3634 32.1268 71.1733 32.5168 72.6897 33.1019C74.5975 29.3481 75.2334 24.863 74.2061 20.3779L66.9665 22.2792Z" fill="#99CC00"/>
  <path d="M43.7801 16.9164C41.7746 16.6239 39.9647 16.2339 38.4483 15.6489C36.5405 19.4027 35.9046 23.8878 36.9318 28.3728L44.1715 26.4228C43.5845 23.8878 43.4377 20.4752 43.7801 16.9164Z" fill="#99CC00"/>
  <path d="M50.1394 38.0249C48.7697 39.0974 47.5957 40.2187 46.6663 41.3887C49.2589 42.7537 52.1449 43.485 55.1288 43.3875C53.3189 41.9249 51.6069 40.0724 50.1394 38.0249Z" fill="#99CC00"/>
  <path d="M44.6607 28.2749L37.421 30.2249C38.7907 34.6125 41.53 38.1713 45.1009 40.4626C46.1281 39.2438 47.4978 37.9763 49.112 36.7088C46.9597 33.8325 45.3455 30.7612 44.6607 28.2749Z" fill="#99CC00"/>
  <path d="M42.8997 57.8178L17.0719 38.3175C16.974 38.22 16.8762 38.1713 16.7295 38.1225C16.6805 38.1225 16.6805 38.0738 16.6316 38.0738C16.5338 38.025 16.387 37.9763 16.2892 37.9275C16.1914 37.8788 16.0446 37.8788 15.9468 37.83C15.8979 37.83 15.8979 37.83 15.849 37.83C15.7022 37.83 15.6044 37.7812 15.4576 37.7812H15.4087C15.3109 37.7812 15.213 37.7812 15.1152 37.7812C15.0663 37.7812 15.0663 37.7812 15.0174 37.7812C14.9196 37.7812 14.8706 37.7812 14.7728 37.83C14.7239 37.83 14.675 37.83 14.675 37.8787C14.5771 37.8787 14.5282 37.9275 14.4304 37.9275C14.3815 37.9275 14.3815 37.9275 14.3326 37.9763C14.2347 38.025 14.1369 38.0738 14.0391 38.1225C13.9412 38.1713 13.8434 38.22 13.7456 38.2688C13.6966 38.2688 13.6966 38.3175 13.6477 38.3175C13.5988 38.3663 13.501 38.415 13.4521 38.4638C13.4031 38.5125 13.4031 38.5125 13.3542 38.5613C13.3053 38.61 13.2075 38.6588 13.1586 38.7563C13.1096 38.805 13.1096 38.805 13.0607 38.8538C12.9629 38.9513 12.914 39.0488 12.8161 39.1463L0.68488 55.1365C-0.391281 56.5502 -0.195616 58.4515 1.02729 59.3778L23.3332 76.2455L26.8552 78.9268C26.953 79.0243 27.0508 79.073 27.1976 79.1218C27.2465 79.1218 27.2465 79.1705 27.2954 79.1705C27.3932 79.2193 27.54 79.268 27.6378 79.3168C27.7356 79.3655 27.8824 79.3655 27.9802 79.4143C28.0291 79.4143 28.0291 79.4143 28.0781 79.4143C28.2248 79.4143 28.3226 79.4631 28.4694 79.4631H28.5183C28.6161 79.4631 28.714 79.4631 28.8118 79.4631C28.8607 79.4631 28.8607 79.4631 28.9096 79.4631C29.0075 79.4631 29.0564 79.463 29.1542 79.4143C29.2031 79.4143 29.2521 79.4143 29.2521 79.3656C29.3499 79.3656 29.3988 79.3168 29.4966 79.3168C29.5456 79.3168 29.5456 79.3168 29.5945 79.2681C29.6923 79.2193 29.7901 79.1705 29.888 79.1218C29.9858 79.073 30.0836 79.0243 30.1815 78.9755C30.2304 78.9755 30.2304 78.9268 30.2793 78.9268C30.3282 78.878 30.426 78.8293 30.475 78.7805C30.5239 78.7318 30.5239 78.7318 30.5728 78.683C30.6217 78.6343 30.7195 78.5855 30.7685 78.488C30.8174 78.4393 30.8174 78.4393 30.8663 78.3905C30.9641 78.293 31.013 78.1955 31.1109 78.098L36.8341 70.5904L43.2911 62.0591C44.3183 60.6941 44.1716 58.7928 42.8997 57.8178ZM9.04958 61.4741L3.7177 57.4278L6.26135 54.064L11.5932 58.1103L9.04958 61.4741ZM37.2743 66.8366L9.93008 46.1664L13.1096 41.9251L40.4539 62.5953L37.2743 66.8366Z" fill="#6699FF"/>
  <path d="M125.471 52.1634C125.471 45.972 128.797 40.5607 133.737 37.5869C127.525 40.1219 123.171 46.2158 123.171 53.3334C123.171 62.7422 130.802 70.3473 140.194 70.3473C143.374 70.3473 146.358 69.4698 148.901 67.9586C146.945 68.7386 144.744 69.2261 142.493 69.2261C133.101 69.1773 125.471 61.5722 125.471 52.1634Z" fill="#6699FF"/>
  <path d="M139.363 47.4343C139.363 48.068 139.559 48.6531 139.999 49.0918C140.439 49.5306 141.124 49.8718 142.151 50.1643V44.8018C141.32 44.8993 140.635 45.1918 140.146 45.6793C139.607 46.1668 139.363 46.7518 139.363 47.4343Z" fill="#6699FF"/>
  <path d="M142.494 36.6606C139.559 36.6606 136.868 37.4894 134.52 38.8544C130.02 41.5845 126.987 46.5083 126.987 52.1633C126.987 60.7435 133.933 67.6661 142.494 67.6661C144.548 67.6661 146.505 67.276 148.315 66.5448C153.989 64.2535 158 58.6959 158 52.1633C158 43.632 151.054 36.6606 142.494 36.6606ZM146.798 58.7447C145.918 59.6709 144.793 60.1585 143.374 60.256V62.2547H142.2V60.256C141.222 60.1097 140.39 59.9147 139.754 59.5734C139.118 59.2322 138.58 58.7447 138.14 58.0134C137.7 57.2822 137.406 56.4047 137.357 55.3809L139.363 54.9909C139.51 56.0634 139.803 56.8434 140.195 57.3309C140.782 58.0622 141.417 58.4522 142.2 58.5009V52.1633C141.369 52.0171 140.537 51.6758 139.656 51.1883C139.021 50.8471 138.531 50.3596 138.189 49.7258C137.847 49.0921 137.651 48.3608 137.651 47.5808C137.651 46.167 138.14 44.997 139.167 44.1195C139.852 43.5345 140.83 43.1445 142.151 43.047V42.072H143.325V43.047C144.499 43.1445 145.429 43.4857 146.113 44.0707C146.994 44.802 147.532 45.777 147.679 47.0445L145.624 47.337C145.526 46.557 145.282 45.972 144.891 45.5333C144.499 45.0945 144.01 44.8508 143.374 44.7045V50.4571C144.401 50.7008 145.037 50.8958 145.38 51.0421C146.016 51.3346 146.505 51.6271 146.896 52.0171C147.287 52.4071 147.581 52.8946 147.825 53.4309C148.021 53.9671 148.119 54.5521 148.119 55.1859C148.119 56.6972 147.679 57.8184 146.798 58.7447Z" fill="#6699FF"/>
  <path d="M143.423 52.5532V58.5983C144.255 58.5008 144.988 58.1596 145.526 57.5746C146.064 56.9895 146.358 56.307 146.358 55.4295C146.358 54.6983 146.162 54.1132 145.771 53.6745C145.38 53.2845 144.597 52.8945 143.423 52.5532Z" fill="#6699FF"/>
  <path d="M75.9672 88.6775C74.9889 87.7025 73.13 87.8975 71.6136 89.1163C71.6136 89.0675 71.6625 89.0675 71.6625 89.0188C71.7604 88.8725 71.8582 88.7262 71.956 88.58C71.956 88.58 71.956 88.58 71.956 88.5313C72.0539 88.3362 72.1517 88.19 72.2495 87.995C72.2495 87.995 72.2495 87.995 72.2495 87.9462C72.3474 87.7512 72.3963 87.605 72.4452 87.41C72.4941 87.215 72.543 87.02 72.592 86.8737C72.7387 86.045 72.543 85.265 72.005 84.7287C71.369 84.0949 70.4396 83.9487 69.4613 84.2412C69.1189 84.3387 68.7765 84.4849 68.4341 84.6799C68.2873 84.7775 68.1406 84.875 67.9449 84.9725L67.896 85.0212C67.7981 85.07 67.7492 85.1675 67.6514 85.2162C67.6025 85.265 67.5046 85.3137 67.4557 85.3625C67.6025 85.2162 67.7003 85.1187 67.7982 84.9725C67.7982 84.9237 67.8471 84.9237 67.8471 84.875C67.9449 84.7287 68.0427 84.5824 68.1406 84.4362C68.2384 84.2899 68.2873 84.1437 68.3851 83.9974C68.3851 83.9974 68.3851 83.9487 68.4341 83.9487C68.483 83.8024 68.5808 83.6562 68.6297 83.5099C68.8254 82.8762 68.7765 81.9987 68.7276 81.7062C68.6786 81.5112 68.6297 81.3649 68.5319 81.2187C68.5319 81.2187 68.5319 81.2187 68.5319 81.1699C68.483 81.1212 68.4341 81.0237 68.3851 80.9749C68.3362 80.9262 68.2873 80.8287 68.1895 80.7799C68.1406 80.7312 68.0427 80.6337 67.9449 80.5849C67.896 80.5362 67.8471 80.5362 67.8471 80.4874C67.7981 80.4387 67.7492 80.4386 67.7003 80.3899C67.6025 80.3411 67.5536 80.2924 67.4557 80.2924C67.3579 80.2436 67.309 80.2436 67.2111 80.1949C67.1133 80.1949 67.0155 80.1461 66.9177 80.1461C66.8687 80.1461 66.8687 80.1461 66.8198 80.1461C66.7709 80.1461 66.7709 80.1461 66.722 80.1461C66.6731 80.1461 66.6242 80.1461 66.5752 80.1461C66.5263 80.1461 66.4774 80.1461 66.4285 80.1461C66.3796 80.1461 66.3307 80.1461 66.2817 80.1461C66.2328 80.1461 66.135 80.1461 66.0861 80.1949C66.0372 80.1949 65.9882 80.1949 65.9393 80.2436C65.8904 80.2436 65.7926 80.2924 65.7437 80.2924C65.6947 80.2924 65.6458 80.3411 65.548 80.3411C65.4502 80.3411 65.4012 80.3899 65.3034 80.3899C65.2545 80.3899 65.2056 80.4386 65.1077 80.4386C65.0099 80.4874 64.961 80.4874 64.8632 80.5361C64.8142 80.5361 64.7653 80.5849 64.7164 80.5849C64.6186 80.6337 64.5207 80.6824 64.4718 80.7312C64.4229 80.7312 64.374 80.7799 64.3251 80.7799C64.1783 80.8774 64.0805 80.9262 63.9827 81.0237C64.1294 80.8774 64.2272 80.6824 64.3251 80.5361C64.3251 80.4874 64.374 80.4874 64.374 80.4386C64.5697 80.0974 64.7164 79.8049 64.8142 79.4636C64.8632 79.3174 64.8632 79.2686 64.9121 79.1224C64.9121 79.0736 64.9121 79.0249 64.961 78.9761C64.961 78.8299 65.0099 78.6836 65.0099 78.5374C65.0099 78.4399 65.0099 78.3911 65.0099 78.2936C65.0099 78.2449 65.0099 78.1474 65.0099 78.0986C65.0099 78.0011 64.961 77.9036 64.961 77.8061C64.961 77.7574 64.961 77.7086 64.9121 77.7086C64.8632 77.5624 64.8142 77.4649 64.7653 77.3186C64.7653 77.2699 64.7164 77.2699 64.7164 77.2211C64.6186 77.0749 64.5697 76.9774 64.4229 76.8799C64.3251 76.7824 64.2273 76.6849 64.1294 76.6361C64.0805 76.6361 64.0805 76.5874 64.0316 76.5874C63.9337 76.5386 63.787 76.4411 63.6892 76.3923H63.6403C63.5424 76.3436 63.3957 76.3436 63.2978 76.2948C63.2489 76.2948 63.2489 76.2948 63.2 76.2948C63.0533 76.2948 62.9554 76.2461 62.8087 76.2461C62.7598 76.2461 62.7108 76.2461 62.7108 76.2461C62.613 76.2461 62.5641 76.2461 62.4663 76.2461C62.4173 76.2461 62.3684 76.2461 62.3195 76.2461C62.2217 76.2461 62.1728 76.2948 62.0749 76.2948C62.026 76.2948 61.9771 76.2949 61.9282 76.3436C61.8303 76.3436 61.7325 76.3924 61.6347 76.4411C61.5858 76.4411 61.5858 76.4411 61.5368 76.4411C61.439 76.4899 61.2923 76.5386 61.1944 76.5874C61.1455 76.5874 61.1455 76.6361 61.0966 76.6361C60.9988 76.6849 60.9009 76.7336 60.852 76.7824C60.8031 76.7824 60.7542 76.8311 60.7053 76.8799C60.6074 76.9286 60.5585 76.9774 60.4607 77.0261C60.4118 77.0749 60.3629 77.0749 60.3139 77.1236C60.2161 77.1724 60.1672 77.2211 60.0694 77.3186C60.0204 77.3674 60.0204 77.3674 59.9715 77.4161C59.8737 77.5136 59.7269 77.6111 59.6291 77.7086C59.5313 77.8061 59.4334 77.9036 59.3356 78.0499C59.3356 78.0986 59.2867 78.0986 59.2867 78.1474C59.2378 78.2449 59.1399 78.3424 59.091 78.4399L59.0421 78.4886C58.9932 78.5861 58.8954 78.6836 58.8464 78.7811C58.8464 78.7811 58.8464 78.7811 58.8464 78.8299C58.7975 78.9274 58.6997 79.0736 58.6508 79.1711C58.2594 80.0974 58.2594 80.5849 58.2594 80.5849C58.2594 80.7312 58.2594 80.8774 58.2594 81.0237V81.0724C58.2594 81.2187 58.3084 81.3649 58.3573 81.5112V81.5599C58.4062 81.7062 58.4551 81.8524 58.5529 81.9499C58.5529 81.9499 58.5529 81.9987 58.6019 81.9987C58.6997 82.1449 58.7975 82.2424 58.8954 82.3399C58.8954 82.3399 58.9443 82.3887 58.9932 82.3887C59.091 82.4862 59.1889 82.5349 59.2867 82.6324C59.3356 82.6812 59.3845 82.6812 59.4334 82.6812C59.5313 82.7299 59.6291 82.7787 59.7269 82.8274C59.7759 82.8274 59.8248 82.8762 59.9226 82.8762C60.0204 82.8762 60.1183 82.9249 60.2161 82.9249C60.265 82.9249 60.3629 82.9249 60.4118 82.9249C60.4607 82.9249 60.5585 82.9249 60.6074 82.9249C60.6564 82.9249 60.7542 82.9249 60.8031 82.9249H60.852C60.9988 82.9249 61.1944 82.8762 61.3412 82.8274C61.3901 82.8274 61.3901 82.8274 61.439 82.8274C61.5858 82.7787 61.7814 82.7299 61.9282 82.6812C61.9771 82.6812 61.9771 82.6324 62.026 82.6324C62.1728 82.5349 62.3684 82.4862 62.5152 82.3887L62.5641 82.3399C62.7598 82.2424 62.9065 82.0962 63.1022 81.9987C61.9771 83.4612 61.7814 85.2162 62.7598 86.1912C62.8576 86.2887 62.9554 86.3862 63.0533 86.435L63.1022 86.4837C63.2 86.5325 63.3468 86.63 63.4446 86.63H63.4935C63.5913 86.6787 63.7381 86.6787 63.8359 86.7275H63.8848C64.0316 86.7275 64.1783 86.7762 64.2762 86.7762H64.3251H64.374C64.4229 86.7762 64.5207 86.7762 64.5697 86.7762C64.6186 86.7762 64.6675 86.7762 64.7164 86.7762C64.8142 86.7762 64.8632 86.7275 64.961 86.7275C65.0099 86.7275 65.0099 86.7275 65.0588 86.7275C65.1567 86.6787 65.3034 86.6787 65.4012 86.63H65.4502C65.548 86.5812 65.6458 86.5812 65.7437 86.5325C65.7926 86.5325 65.8415 86.4837 65.8415 86.4837C65.9393 86.435 65.9882 86.435 66.0861 86.3862C66.135 86.3862 66.1839 86.3375 66.2328 86.3375C66.2817 86.2887 66.3796 86.24 66.4285 86.1912C66.4774 86.1425 66.5263 86.1425 66.5752 86.0937C66.6731 86.045 66.722 85.9962 66.8198 85.9475C66.8687 85.8987 66.8687 85.8987 66.9177 85.85C67.0155 85.7525 67.1133 85.655 67.2601 85.5575C65.7926 87.0687 65.4991 89.1163 66.5752 90.1888C66.6731 90.2863 66.7709 90.3838 66.8687 90.4325L66.9177 90.4813C67.0155 90.53 67.1622 90.6275 67.2601 90.6275C67.2601 90.6275 67.309 90.6275 67.309 90.6763C67.4557 90.725 67.5536 90.7738 67.7003 90.7738H67.7492C67.896 90.7738 67.9938 90.8225 68.1406 90.8225H68.1895C68.2873 90.8225 68.3362 90.8225 68.4341 90.8225H68.483C68.5808 90.8225 68.6786 90.7738 68.7765 90.7738C68.8254 90.7738 68.8254 90.7738 68.8743 90.7738C68.9721 90.7738 69.0211 90.725 69.1189 90.725C69.1678 90.725 69.2167 90.6763 69.2167 90.6763C69.2656 90.6763 69.3635 90.6275 69.4124 90.6275C69.4613 90.6275 69.5102 90.5788 69.5591 90.5788C69.6081 90.53 69.7059 90.53 69.7548 90.4813C69.8037 90.4813 69.8526 90.4325 69.9016 90.4325C69.9505 90.3838 70.0483 90.3838 70.0972 90.335C70.1461 90.335 70.1951 90.2863 70.1951 90.2863C70.244 90.2375 70.3418 90.1888 70.3907 90.14C70.4396 90.14 70.4396 90.0913 70.4886 90.0913C70.5864 90.0425 70.6842 89.945 70.782 89.8475C69.5591 91.31 69.3146 93.2113 70.3418 94.1863C70.4396 94.2838 70.5375 94.3813 70.6353 94.4301C70.6842 94.4301 70.6842 94.4788 70.7331 94.4788C70.831 94.5276 70.9777 94.6251 71.0755 94.6738H71.1245C71.2223 94.7226 71.369 94.7226 71.4669 94.7713C71.5158 94.7713 71.5158 94.7713 71.5647 94.7713C71.7115 94.7713 71.8093 94.8201 71.956 94.8201C72.005 94.8201 72.005 94.8201 72.0539 94.8201C72.1517 94.8201 72.2006 94.8201 72.2985 94.8201C72.3474 94.8201 72.3963 94.8201 72.4452 94.8201C72.543 94.8201 72.592 94.7713 72.6898 94.7713C72.7387 94.7713 72.7876 94.7713 72.8365 94.7226C72.9344 94.7226 73.0322 94.6738 73.13 94.6251C73.179 94.6251 73.179 94.6251 73.2279 94.6251C73.3257 94.5763 73.4724 94.5276 73.5703 94.4788C73.6192 94.4788 73.6192 94.4301 73.6681 94.4301C73.766 94.3813 73.8638 94.3326 73.9127 94.2838C73.9616 94.2838 74.0105 94.2351 74.0594 94.1863C74.1573 94.1376 74.2062 94.0888 74.304 94.0401C74.3529 93.9913 74.4019 93.9913 74.4508 93.9426C74.5486 93.8938 74.5975 93.8451 74.6954 93.7476C74.7443 93.6988 74.7443 93.6988 74.7932 93.6501C74.891 93.5526 75.0378 93.4551 75.1356 93.3576C75.2334 93.2601 75.3313 93.1626 75.4291 93.0651C75.478 93.0163 75.478 93.0163 75.5269 92.9676C75.5759 92.9188 75.6248 92.8213 75.7226 92.7726C75.7715 92.7238 75.7715 92.6751 75.8204 92.6263C75.8694 92.5775 75.9183 92.4801 75.9672 92.4313C76.0161 92.3825 76.0161 92.3338 76.065 92.285C76.1139 92.2363 76.1629 92.1388 76.1629 92.09C76.1629 92.0413 76.2118 91.9925 76.2118 91.9438C76.2118 91.895 76.2607 91.895 76.2607 91.8463C76.2607 91.7975 76.3096 91.7975 76.3096 91.7488C76.3096 91.7 76.3585 91.6513 76.3585 91.6025C76.4074 91.505 76.4074 91.4563 76.4564 91.3588C76.4564 91.31 76.5053 91.2613 76.5053 91.2613C76.5053 91.1638 76.5542 91.115 76.5542 91.0175C76.5542 90.9688 76.5542 90.9688 76.5542 90.92C76.5542 90.8225 76.6031 90.5788 76.6031 90.5788C76.652 89.7988 76.4564 89.165 75.9672 88.6775Z" fill="#FF6600"/>
  <path d="M71.7096 89.0679C71.7096 89.0679 71.6627 89.0679 71.6627 89.1149C71.6627 89.1149 71.6627 89.0679 71.7096 89.0679Z" fill="white"/>
  <path d="M57.1345 84.1439C56.9389 83.9489 56.7921 83.7539 56.5964 83.5101C56.5475 83.4614 56.5475 83.4126 56.4986 83.4126C56.4497 83.3639 56.4497 83.3151 56.4008 83.2664C56.254 83.0226 56.1073 82.7301 56.0094 82.4376C56.0094 82.3889 55.9605 82.3401 55.9605 82.2914C55.8627 81.9989 55.8138 81.7064 55.7649 81.4139C55.7649 81.3651 55.7649 81.3164 55.7649 81.2676C55.7649 81.0726 55.7649 80.8776 55.7649 80.6826C55.7159 80.6826 55.667 80.6338 55.667 80.6338H55.6181L55.3246 80.4876H55.2757L54.9822 80.3413C53.6615 79.8051 52.732 79.3663 52.6831 79.3663L51.3135 78.7813V62.5474L43.5358 65.7649L38.742 72.1025L33.0187 79.6101C32.9209 79.7563 32.7741 79.9026 32.6274 80.0976C32.5785 80.1463 32.5296 80.1951 32.4807 80.2438C32.3828 80.3413 32.285 80.4388 32.1872 80.5363C32.1382 80.5851 32.0893 80.6338 32.0404 80.6826C31.9426 80.7801 31.7958 80.8289 31.698 80.9264C31.6491 80.9751 31.6002 80.9751 31.5512 81.0239C31.4045 81.1214 31.2577 81.2189 31.111 81.2676H31.0621L31.0132 81.3164C30.8664 81.4139 30.6707 81.4626 30.4751 81.5601C30.4262 81.5601 30.3772 81.6089 30.2794 81.6089C30.1327 81.6576 30.0348 81.7064 29.8881 81.7064C29.8392 81.7064 29.7413 81.7551 29.6924 81.7551C29.5457 81.8039 29.4478 81.8039 29.2522 81.8526C29.2033 81.8526 29.1543 81.8526 29.0565 81.8526C28.9098 81.8526 28.763 81.9014 28.5673 81.9014H28.5184H28.4206C28.176 81.9014 27.9803 81.9014 27.7358 81.8526C27.6868 81.8526 27.6379 81.8526 27.5401 81.8039C27.3444 81.7551 27.1488 81.7064 26.9531 81.6576H26.9042L26.8063 81.6089C26.5618 81.5601 26.3661 81.4626 26.1215 81.3164C26.0726 81.2676 26.0237 81.2676 25.9748 81.2189C25.7302 81.0726 25.5345 80.9751 25.3389 80.8289L21.8169 78.1476L18.9797 76.0025L8.95186 80.1951C6.35929 81.2676 6.55495 83.6564 9.44102 85.4602L23.0398 93.9428C25.9258 95.7465 30.3772 96.3316 33.0187 95.2103L57.9172 84.7777C57.6726 84.6314 57.3791 84.3877 57.1345 84.1439Z" fill="#99CC00"/>
  <path d="M148.999 80.2932L110.551 64.1567V66.5455V77.4169V79.4157L108.546 79.8057H108.497L108.301 79.8544L108.105 79.9032H108.056L107.812 79.9519H107.714L107.372 80.0007L107.029 80.0494H106.931C106.785 80.0494 106.687 80.0982 106.54 80.0982H106.442C106.295 80.0982 106.149 80.1469 106.002 80.1469H105.953C105.806 80.1469 105.611 80.1957 105.464 80.1957H105.366C105.219 80.1957 105.024 80.2444 104.877 80.2444H104.828C104.681 80.2444 104.486 80.2932 104.339 80.2932H104.241C104.045 80.2932 103.899 80.3419 103.703 80.3419H103.605H103.556C103.409 80.3419 103.214 80.3907 103.067 80.3907H103.018C102.822 80.3907 102.676 80.4394 102.48 80.4394H102.382C102.186 80.4394 102.04 80.4394 101.844 80.4882H101.795C101.648 80.4882 101.502 80.4882 101.306 80.4882H101.208C101.061 80.4882 100.866 80.4882 100.719 80.4882H100.621C100.67 80.7807 100.67 81.122 100.67 81.4145C100.67 81.6095 100.621 81.8532 100.572 82.0482C100.523 82.3407 100.425 82.6332 100.328 82.877C100.328 82.9257 100.279 82.9745 100.279 83.0232C100.181 83.2182 100.083 83.3645 99.9852 83.5595C99.8874 83.7057 99.7406 83.9007 99.5939 84.047C99.496 84.1445 99.3982 84.242 99.3004 84.3883L124.786 95.0646C125.862 95.5034 127.232 95.6984 128.699 95.6009C130.803 95.5034 133.053 94.8696 134.765 93.7971L148.364 85.3145C151.396 83.7057 151.641 81.3657 148.999 80.2932Z" fill="#99CC00"/>
  <path d="M108.056 60.939C108.007 60.939 107.91 60.9878 107.812 60.9878C107.616 61.0365 107.274 61.134 106.931 61.2315C106.736 61.2803 106.54 61.329 106.344 61.3778C105.904 61.4753 105.415 61.6215 104.926 61.719H104.877C104.534 61.8165 104.143 61.914 103.752 62.0115C103.36 62.109 102.969 62.2065 102.529 62.304C101.991 62.4503 101.502 62.5478 101.012 62.6453C100.67 62.7428 100.328 62.7915 100.034 62.8403C99.7405 62.889 99.4959 62.9378 99.3003 62.9866C99.1535 62.9866 99.0557 63.0353 98.9579 63.0353C98.86 63.0353 98.8111 63.0353 98.7133 63.0353C98.6644 63.0353 98.6644 63.0353 98.6154 63.0353C98.5665 63.0353 98.5176 63.0353 98.4687 63.0353C98.4198 63.0353 98.4198 63.0353 98.3709 63.0353C98.3219 63.0353 98.273 63.0353 98.2241 62.9866C98.1752 62.9866 98.1752 62.9866 98.1263 62.9378C98.0774 62.9378 98.0284 62.8891 97.9795 62.8891C97.9306 62.8891 97.9306 62.8403 97.8817 62.8403C97.8328 62.8403 97.7839 62.7916 97.7349 62.7916C97.686 62.7916 97.686 62.7428 97.6371 62.7428C97.5882 62.7428 97.5393 62.6941 97.4904 62.6941C97.4414 62.6941 97.4414 62.6453 97.3925 62.6453C97.3436 62.5965 97.2947 62.5965 97.2458 62.5478C97.1969 62.5478 97.1969 62.499 97.148 62.499C97.099 62.499 97.099 62.4503 97.0501 62.4503C97.0012 62.4015 97.0012 62.4015 96.9523 62.3528C96.9034 62.304 96.8544 62.304 96.8055 62.2553C96.7566 62.2065 96.7566 62.2065 96.7077 62.1578C96.6588 62.109 96.6099 62.109 96.5609 62.0603C96.512 62.0115 96.512 62.0115 96.4631 61.9628C96.4142 61.914 96.3653 61.8653 96.3164 61.8653C96.2674 61.8165 96.2675 61.8165 96.2185 61.7678C96.1696 61.719 96.1207 61.6703 96.0718 61.6215C96.0229 61.5728 96.0229 61.5728 95.974 61.524C95.925 61.4753 95.8761 61.4265 95.8272 61.3778C95.7783 61.329 95.7783 61.329 95.7294 61.2803C95.6315 61.2315 95.5826 61.134 95.4848 61.0853C95.4359 61.0365 95.387 60.9878 95.2891 60.939C95.2402 60.8903 95.2402 60.8903 95.1913 60.8415C95.0935 60.744 94.9956 60.6953 94.9467 60.5978C94.8489 60.5003 94.751 60.4028 94.6043 60.3053C94.5065 60.2078 94.4086 60.159 94.3108 60.0615C94.2619 60.0128 94.213 59.964 94.164 59.9153C94.0662 59.8665 94.0173 59.769 93.9195 59.6715C93.8705 59.6228 93.8216 59.574 93.7727 59.5253C93.6749 59.4278 93.626 59.379 93.5281 59.2815C93.4792 59.2328 93.3814 59.184 93.3325 59.1353C93.2346 59.0378 93.1857 58.989 93.0879 58.8915C93.039 58.8428 92.9411 58.794 92.8922 58.6965C92.7944 58.6477 92.6966 58.5502 92.6476 58.5015C92.5987 58.4527 92.5009 58.404 92.452 58.3065C92.3541 58.2577 92.2563 58.1602 92.1585 58.1115C92.0606 58.0627 92.0117 58.014 91.9139 57.9165C91.8161 57.8677 91.7182 57.7702 91.6204 57.7215C91.5226 57.6727 91.4736 57.624 91.3758 57.5752C91.278 57.5265 91.1801 57.429 91.0823 57.3802C90.9845 57.3315 90.9356 57.2827 90.8377 57.234C90.7399 57.1852 90.6421 57.0877 90.5442 57.039C90.4464 56.9902 90.3975 56.9415 90.2997 56.8927C90.2018 56.844 90.104 56.7952 90.0062 56.7465C89.9083 56.6977 89.8594 56.649 89.7616 56.649C89.6637 56.6002 89.5659 56.5515 89.4681 56.5027C89.4192 56.454 89.3213 56.454 89.2724 56.4052C89.1746 56.3565 89.0767 56.3077 88.9789 56.3077C88.93 56.3077 88.8322 56.259 88.7832 56.259C88.6854 56.2102 88.5387 56.2102 88.4408 56.1615C88.3919 56.1615 88.343 56.1615 88.2941 56.1127C88.1473 56.064 88.0006 56.064 87.8538 56.064C87.7071 56.064 87.5603 56.064 87.4136 56.1127C87.3157 56.1127 87.169 56.1615 87.0712 56.2102C86.9244 56.259 86.7777 56.3077 86.6309 56.3565C86.3863 56.454 86.1418 56.5515 85.8972 56.649C85.1145 56.9902 84.0873 57.4777 83.0111 58.014C82.6687 58.209 82.2774 58.404 81.9349 58.599C80.8099 59.184 79.6848 59.8178 78.6086 60.4028C78.2662 60.5978 77.8749 60.7928 77.5325 60.9878C76.5052 61.5728 76.3585 61.6703 75.6736 62.0603C75.4291 62.2065 75.2334 62.304 75.0377 62.4015C74.891 62.499 74.7931 62.5478 74.6953 62.5965C74.5975 62.6453 74.4996 62.694 74.4507 62.7428C74.304 62.8403 74.1083 62.9865 73.9127 63.0841C73.717 63.1816 73.5213 63.3278 73.3746 63.4741C73.2767 63.5228 73.1789 63.6203 73.0811 63.7178C72.8854 63.8641 72.7387 64.0591 72.5919 64.2053C71.9071 64.9853 71.5647 66.0091 72.3473 67.3741C72.4452 67.5204 72.543 67.6666 72.6408 67.8129C72.6897 67.8616 72.6897 67.9104 72.7387 67.9104C72.7876 68.0079 72.8854 68.0566 72.9343 68.1541C72.9832 68.2029 73.0322 68.2516 73.0811 68.2516C73.13 68.3004 73.2278 68.3491 73.2767 68.3979C73.3257 68.4466 73.3746 68.4466 73.4235 68.4954C73.4724 68.5441 73.5702 68.5929 73.6192 68.5929C73.6681 68.6416 73.717 68.6416 73.7659 68.6416C73.8148 68.6904 73.9126 68.6904 73.9616 68.7391C74.0105 68.7391 74.0594 68.7879 74.1083 68.7879C74.1572 68.7879 74.2551 68.8366 74.304 68.8366C74.3529 68.8366 74.4018 68.8366 74.4507 68.8854C74.4996 68.8854 74.5975 68.8854 74.6464 68.8854C74.6953 68.8854 74.7442 68.8854 74.7931 68.8854C74.8421 68.8854 74.8421 68.8854 74.891 68.8854C74.9399 68.8854 74.9888 68.8854 74.9888 68.8854C75.0866 68.8854 75.1356 68.8854 75.2334 68.8854C75.2823 68.8854 75.3801 68.8854 75.4291 68.8854C75.5269 68.8854 75.5758 68.8854 75.6736 68.8366C75.7226 68.8366 75.7715 68.8366 75.8693 68.7879C75.9671 68.7879 76.0161 68.7391 76.1139 68.7391C76.1628 68.7391 76.2117 68.6904 76.3096 68.6904C76.4074 68.6904 76.4563 68.6416 76.5541 68.6416C76.6031 68.6416 76.652 68.5929 76.7009 68.5929C76.7987 68.5441 76.8476 68.5441 76.9455 68.4954C76.9944 68.4954 77.0433 68.4466 77.0922 68.4466C77.1901 68.3979 77.239 68.3979 77.3368 68.3491C77.3857 68.3491 77.4346 68.3004 77.4835 68.3004C77.5814 68.2516 77.6303 68.2029 77.7281 68.2029C77.777 68.2029 77.7771 68.1541 77.826 68.1541C77.9238 68.1054 78.0216 68.0566 78.1195 68.0079C78.8043 67.6666 78.8532 67.6179 79.587 67.2279C79.7826 67.1304 80.0272 66.9841 80.2229 66.8866C80.3207 66.8378 80.4185 66.7891 80.5164 66.7403C80.712 66.6428 80.9077 66.5453 81.0544 66.4478C81.1523 66.3991 81.2012 66.3503 81.299 66.3016C81.4458 66.2041 81.5925 66.1553 81.6904 66.1066C81.7393 66.0578 81.7882 66.0578 81.8371 66.0091C81.886 65.9603 81.9349 65.9603 82.0328 65.9116L82.0817 65.8628C82.1306 65.8141 82.1795 65.8141 82.2284 65.7653C82.2774 65.7653 82.2774 65.7166 82.3263 65.7166C82.3752 65.6678 82.4241 65.6678 82.5219 65.6191C82.5709 65.6191 82.6198 65.5703 82.6198 65.5703C82.6687 65.5216 82.7665 65.5216 82.8154 65.4728C82.8644 65.4728 82.9133 65.4241 82.9622 65.4241C83.06 65.3753 83.1579 65.3753 83.2068 65.3266C83.2557 65.3266 83.2557 65.3266 83.3046 65.2778C83.4514 65.2291 83.5492 65.2291 83.6959 65.1803C83.7449 65.1803 83.7449 65.1803 83.7938 65.1803C83.8916 65.1803 83.9894 65.1316 84.0873 65.1316C84.1362 65.1316 84.1851 65.1316 84.234 65.1316C84.3318 65.1316 84.4297 65.1316 84.5275 65.1316C84.5764 65.1316 84.5764 65.1316 84.6253 65.1316C84.6743 65.1316 84.7232 65.1316 84.7721 65.1316C84.821 65.1316 84.8699 65.1316 84.9188 65.1316C85.0167 65.1316 85.1145 65.1316 85.2123 65.1803C85.2613 65.1803 85.2613 65.1803 85.3102 65.1803C85.4569 65.1803 85.5548 65.2291 85.7015 65.2778C85.7504 65.2778 85.7504 65.2778 85.7993 65.3266C85.8972 65.3753 85.995 65.3753 86.0928 65.4241C86.1418 65.4241 86.1907 65.4728 86.2396 65.4728C86.3374 65.5216 86.4353 65.5703 86.4842 65.6191C86.5331 65.6678 86.582 65.6678 86.6309 65.7166C86.7288 65.7653 86.8266 65.8628 86.9244 65.9116C86.9733 65.9603 87.0223 65.9603 87.0712 66.0091C87.2179 66.1066 87.3158 66.2528 87.4625 66.3503C87.5603 66.4478 87.6582 66.5453 87.756 66.6428C87.756 66.6428 87.756 66.6428 87.8049 66.6916C87.8538 66.7404 87.9027 66.7891 88.0006 66.8866C88.1962 67.0816 88.4408 67.3254 88.6854 67.5691C89.3702 68.2516 90.2018 69.0316 91.0823 69.9579C91.3758 70.2504 91.7182 70.5916 92.0606 70.8841C92.4031 71.2254 92.6966 71.5179 93.039 71.8592C93.3814 72.2004 93.7238 72.4929 94.0173 72.8342C94.3597 73.1754 94.7021 73.4679 94.9956 73.7604C95.338 74.0529 95.6315 74.3942 95.974 74.6867C96.2675 74.9792 96.6099 75.2717 96.9034 75.5155C97.1969 75.7592 97.4904 76.0517 97.7349 76.2955C98.5176 76.978 99.1535 77.5142 99.5938 77.8067C99.7405 77.9042 99.8873 78.0017 99.9851 78.0505C100.034 78.0992 100.132 78.0992 100.23 78.0992H100.279C100.376 78.0992 100.474 78.148 100.572 78.148H100.621C100.719 78.148 100.817 78.148 100.915 78.148H100.963C101.061 78.148 101.208 78.148 101.355 78.148C101.404 78.148 101.404 78.148 101.453 78.148C101.599 78.148 101.697 78.148 101.844 78.148H101.893C102.04 78.148 102.186 78.148 102.333 78.148C102.382 78.148 102.382 78.148 102.431 78.148C102.578 78.148 102.724 78.148 102.92 78.0992H102.969C103.116 78.0992 103.263 78.0505 103.458 78.0505C103.507 78.0505 103.507 78.0505 103.556 78.0505C103.703 78.0505 103.898 78.0017 104.045 78.0017C104.094 78.0017 104.094 78.0017 104.143 78.0017C104.29 78.0017 104.436 77.953 104.583 77.953H104.632C104.779 77.953 104.975 77.9042 105.121 77.9042C105.17 77.9042 105.17 77.9042 105.219 77.9042C105.366 77.9042 105.513 77.8555 105.708 77.8555H105.757C105.904 77.8555 106.051 77.8067 106.197 77.8067C106.246 77.8067 106.246 77.8067 106.295 77.8067C106.442 77.8067 106.589 77.758 106.687 77.758C106.736 77.758 106.736 77.758 106.784 77.758C106.882 77.758 107.029 77.7092 107.127 77.7092C107.225 77.7092 107.371 77.6605 107.469 77.6605H107.518C107.616 77.6605 107.714 77.6117 107.763 77.6117H107.812C107.861 77.6117 107.958 77.6117 108.007 77.563C108.056 77.563 108.105 77.563 108.154 77.563H108.203V66.6916V63.2791V60.939C108.105 60.939 108.105 60.939 108.056 60.939Z" fill="#FF6600"/>
  <path d="M98.2731 80.6822C98.2242 80.5847 98.2242 80.4872 98.1753 80.3897C98.1264 80.1947 98.0286 79.9997 97.9307 79.8047C97.8818 79.7072 97.8329 79.6585 97.784 79.561C97.3437 79.2197 96.8057 78.781 96.0719 78.1472C95.7784 77.9035 95.4849 77.6597 95.1914 77.3672C94.8979 77.0747 94.5555 76.8309 94.262 76.4897C93.9196 76.1972 93.6261 75.9047 93.2837 75.5634C92.9413 75.2709 92.5988 74.9297 92.2564 74.5884C91.914 74.2472 91.5716 73.9547 91.2292 73.6134C90.8868 73.2721 90.5444 72.9796 90.2509 72.6384C89.9084 72.2971 89.6149 72.0046 89.2725 71.7121C88.3431 70.8346 87.5605 70.0058 86.8267 69.3233L86.1419 68.6408L86.093 68.5921L85.9462 68.4458L85.8973 68.3971L85.6038 68.1046C85.6038 68.1046 85.5549 68.0558 85.506 68.0558C85.3103 67.8608 84.9679 67.6658 84.332 67.7146C83.8428 67.7146 83.5493 67.9096 83.4026 67.9583C83.4026 67.9583 83.4026 67.9583 83.3536 67.9583H83.3047H83.2558C83.2069 67.9583 83.158 68.0071 83.158 68.0071L83.1091 68.0558L83.158 68.2508L83.1091 68.2996L82.9134 68.3971C82.7666 68.4458 82.6199 68.5433 82.4731 68.6408L82.2286 68.7871L81.6416 69.0796L81.3481 69.2258L80.7122 69.5671C80.2719 69.8108 80.0762 69.9084 79.8317 70.0059C79.6849 70.1034 79.5382 70.1521 79.2447 70.2984C79.1468 70.3471 79.0001 70.4446 78.9022 70.4934L78.8044 70.5421C78.7066 70.5909 78.6087 70.6396 78.5109 70.6884C78.462 70.6884 78.4131 70.7371 78.3642 70.7371H78.3153C78.2174 70.7859 78.1196 70.8346 78.0218 70.8346C77.9728 70.8346 77.9239 70.8834 77.875 70.8834H77.8261C77.7283 70.9321 77.6304 70.9809 77.5326 70.9809C77.4837 70.9809 77.3858 71.0296 77.3369 71.0296H77.288C77.1902 71.0784 77.0923 71.0784 76.9945 71.1271C76.8967 71.1271 76.8478 71.1759 76.7499 71.1759C76.6521 71.2246 76.5543 71.2246 76.4075 71.2734C76.3097 71.2734 76.2118 71.3221 76.114 71.3221C76.114 71.3221 76.114 71.3221 76.0651 71.3221C75.9673 71.3221 75.8694 71.3709 75.7227 71.3709C75.6248 71.3709 75.527 71.3709 75.4292 71.4196C75.3313 71.4196 75.1846 71.4196 75.0868 71.4196C74.9889 71.4196 74.94 71.4196 74.8422 71.4196C74.7933 71.4196 74.7444 71.4196 74.6465 71.4196C74.5487 71.4196 74.4998 71.4196 74.4019 71.4196C74.2552 71.4196 74.1574 71.4196 74.0106 71.3709C73.9128 71.3709 73.8149 71.3221 73.7171 71.3221C73.5704 71.2734 73.4725 71.2734 73.3258 71.2246C73.2279 71.1759 73.1301 71.1759 73.0323 71.1271C72.8855 71.0784 72.7388 71.0296 72.6409 70.9809C72.5431 70.9321 72.4453 70.8834 72.3964 70.8346C72.3964 70.8346 72.3964 70.8346 72.3474 70.8346C72.2007 70.7371 72.054 70.6884 71.9561 70.5909C71.8583 70.5421 71.7605 70.4934 71.7115 70.4446C71.5648 70.3471 71.418 70.2496 71.3202 70.1521C71.2224 70.1033 71.1735 70.0058 71.0756 69.9571C70.9289 69.8108 70.831 69.6646 70.7332 69.5671C70.6843 69.5183 70.5865 69.4208 70.5375 69.3233C70.3908 69.1283 70.1951 68.8846 70.0973 68.6408C69.3635 67.4221 69.1679 66.1545 69.4125 64.9358C69.6081 64.1558 69.9995 63.3758 70.5865 62.6933C70.7821 62.4495 71.0756 62.2057 71.3202 61.962C71.418 61.8645 71.5648 61.767 71.6626 61.6695C71.8583 61.5232 72.1029 61.3282 72.3474 61.182C72.4942 61.0845 72.592 61.0357 72.6899 60.9382C72.7388 60.8895 72.8366 60.8407 72.8855 60.792C72.9834 60.7432 73.0812 60.6945 73.179 60.597C73.2769 60.5482 73.4236 60.4507 73.5704 60.3532C73.766 60.2557 73.9617 60.1095 74.2063 59.9632C74.4509 59.817 74.5976 59.7195 74.7933 59.622C75.0868 59.427 75.4292 59.232 76.114 58.8419C76.4564 58.6469 76.7988 58.4519 77.1902 58.2569C78.0707 57.7694 78.8533 57.3307 79.6849 56.9407C79.2936 56.5994 77.3369 54.9419 73.9617 54.9419C70.1951 54.9419 62.4174 60.3532 61.3902 60.4507H61.3413C61.2923 60.4507 61.2434 60.4507 61.2434 60.4507C61.1945 60.4507 61.1456 60.4507 61.0967 60.4507C61.0478 60.4507 60.9988 60.4507 60.901 60.402C60.8521 60.402 60.8032 60.402 60.7543 60.3532C60.7053 60.3532 60.6075 60.3045 60.5586 60.3045C60.5097 60.3045 60.4118 60.2557 60.3629 60.2557C60.2651 60.2557 60.2162 60.207 60.1183 60.207C60.0205 60.207 59.9716 60.1582 59.8738 60.1582C59.7759 60.1095 59.6781 60.1095 59.5803 60.0607C59.4824 60.012 59.4335 60.012 59.3357 59.9632C59.2379 59.9145 59.14 59.9145 59.0422 59.8657C58.9443 59.817 58.8465 59.817 58.7487 59.7682C58.6509 59.7195 58.553 59.6707 58.4063 59.6707C58.3084 59.622 58.2106 59.622 58.1128 59.5732C58.0149 59.5245 57.8682 59.4757 57.7704 59.4757C57.6725 59.427 57.5747 59.427 57.4769 59.3782C57.379 59.3295 57.2323 59.2807 57.1344 59.232C57.0366 59.1832 56.9388 59.1832 56.8409 59.1345C56.7431 59.0857 56.5964 59.037 56.4985 58.9882C56.4007 58.9394 56.3029 58.9395 56.2539 58.8907C56.1561 58.8419 56.0583 58.7932 55.9115 58.7444C55.8137 58.6957 55.7648 58.6957 55.667 58.6469C55.5691 58.5982 55.4713 58.5494 55.3735 58.5007C55.2756 58.4519 55.2267 58.4519 55.1289 58.4032C55.031 58.3544 54.9332 58.3057 54.8354 58.2569C54.7865 58.2082 54.6886 58.2082 54.6397 58.1594C54.5419 58.1107 54.493 58.0619 54.3951 58.0619C54.3462 58.0132 54.2484 58.0132 54.1995 57.9644C54.1016 57.9157 54.0527 57.9157 54.0038 57.8669C53.9549 57.8669 53.906 57.8182 53.857 57.8182C53.7592 57.7694 53.5635 57.6719 53.4657 57.6232V76.9772C53.4657 76.9772 54.3951 77.3672 55.7159 77.9035C55.8137 77.9522 55.9115 78.001 56.0094 78.0497H56.0583C56.1072 78.0497 56.1072 78.0985 56.1561 78.0985V78.0497V78.001V77.9522C56.2539 77.7572 56.3518 77.611 56.4496 77.416L56.4985 77.3672C56.5964 77.2209 56.6942 77.0747 56.792 76.8797C56.792 76.8309 56.8409 76.8309 56.8409 76.7822C56.9388 76.6359 57.0366 76.5384 57.1344 76.3922C57.1834 76.3434 57.1834 76.2947 57.2323 76.2947C57.379 76.1484 57.5258 75.9534 57.6725 75.8072C57.8193 75.6609 57.966 75.5147 58.1617 75.3684C58.2106 75.3197 58.2595 75.2709 58.3084 75.2222C58.4063 75.1247 58.553 75.0272 58.6509 74.9784C58.6998 74.9297 58.7976 74.8809 58.8465 74.8322C58.9444 74.7347 59.0911 74.6859 59.1889 74.5884C59.2378 74.5397 59.2868 74.5397 59.3846 74.4909C59.5313 74.3934 59.6292 74.3447 59.7759 74.2959C59.8248 74.2472 59.8738 74.2472 59.9227 74.1984C60.1183 74.1009 60.314 74.0522 60.5097 73.9547C60.5586 73.9547 60.6075 73.9059 60.6564 73.9059C60.8032 73.8572 60.9499 73.8084 61.0967 73.7597C61.1456 73.7597 61.2434 73.7109 61.2923 73.7109C61.4391 73.6621 61.5369 73.6622 61.6837 73.6622C61.7815 73.6622 61.8304 73.6621 61.9283 73.6134C62.075 73.6134 62.2218 73.6134 62.3685 73.5646C62.4174 73.5646 62.4663 73.5646 62.5153 73.5646C62.7598 73.5646 63.0533 73.5646 63.2979 73.6134C63.3468 73.6134 63.3957 73.6134 63.4447 73.6622C63.6892 73.7109 63.8849 73.7596 64.0806 73.8572C64.1295 73.8572 64.1784 73.9059 64.2273 73.9059C64.4719 74.0034 64.7165 74.1009 64.9611 74.2472C65.01 74.2959 65.0589 74.2959 65.1078 74.3447C65.3524 74.5397 65.597 74.6859 65.7926 74.8809C66.0372 75.1247 66.2329 75.3684 66.4286 75.6609C66.4775 75.7584 66.5264 75.8072 66.5753 75.8559C66.7221 76.1484 66.8199 76.3922 66.9177 76.6847C66.9666 76.7822 66.9666 76.8797 66.9666 76.9772C67.0156 77.1234 67.0156 77.2697 67.0645 77.4647C67.2112 77.4647 67.358 77.5135 67.5047 77.5622C67.6515 77.611 67.8471 77.6597 68.0428 77.7085C68.2385 77.806 68.4341 77.8547 68.5809 77.9522C68.6787 78.001 68.7766 78.0497 68.8744 78.1472C69.1679 78.3422 69.4125 78.5372 69.657 78.7322C69.8038 78.8785 69.9505 79.0247 70.0484 79.171C70.1462 79.2685 70.1951 79.4147 70.293 79.5122L70.3419 79.561L70.3908 79.6585C70.6354 80.0485 70.7821 80.4385 70.88 80.8285C70.9289 80.9747 70.9289 81.1697 70.9778 81.3647C71.9561 81.511 72.8855 81.9498 73.5704 82.6323C74.2552 83.3148 74.6954 84.241 74.8422 85.2648C75.8205 85.4111 76.7499 85.8498 77.4348 86.5323C78.4131 87.5073 78.8533 88.8236 78.7555 90.3349C78.7555 90.5786 78.7066 90.7736 78.7066 90.9199C78.7066 90.9686 78.7066 91.0174 78.6577 91.0661C78.7066 91.1636 78.7555 91.2611 78.8044 91.3099C78.9023 91.5049 79.0001 91.6024 79.0979 91.7486C79.0979 91.7974 79.1468 91.7974 79.1468 91.8461C79.2447 91.9924 79.3425 92.0899 79.4403 92.1874L79.4892 92.2361C79.5871 92.3336 79.6849 92.4312 79.7827 92.5287C79.8806 92.6262 79.9784 92.7237 80.0762 92.7724L80.1252 92.8212C80.223 92.8699 80.3208 92.9674 80.4187 93.0162C80.4187 93.0162 80.4676 93.0162 80.4676 93.0649C80.5654 93.1137 80.6632 93.1624 80.7611 93.2112C80.8589 93.2599 80.9567 93.3087 81.0546 93.3087H81.1035C81.2013 93.3574 81.2992 93.3574 81.3481 93.3574H81.397C81.4948 93.3574 81.5926 93.4062 81.6416 93.4062C81.6905 93.4062 81.7883 93.4062 81.8372 93.4062C81.984 93.4062 82.0818 93.4062 82.2286 93.3574H82.2775C82.3753 93.3574 82.4731 93.3087 82.571 93.2599H82.6199C82.7177 93.2112 82.8156 93.1624 82.9134 93.1624C82.9134 93.1624 82.9623 93.1624 82.9623 93.1137C83.0601 93.0649 83.1091 93.0162 83.2069 92.9674C83.3536 92.8699 83.5004 92.7237 83.6471 92.5774C83.7939 92.4311 83.9406 92.2361 84.0385 91.9924C84.1363 91.7974 84.2341 91.5536 84.2341 91.2611C84.2341 91.1636 84.2341 91.0661 84.2341 91.0174C84.2341 90.4811 83.9896 89.8474 83.3047 89.2136C83.1091 89.0186 82.9134 88.8236 82.6688 88.5798C82.0329 87.8973 81.2992 87.1661 80.7122 86.5323C80.2719 86.0448 80.1252 85.6548 80.2719 85.5086C80.3208 85.4598 80.3697 85.4111 80.4187 85.4111H80.4676C80.5165 85.4111 80.5165 85.4111 80.5654 85.4111C80.5654 85.4111 80.5654 85.4111 80.6143 85.4111C80.6632 85.4111 80.7122 85.4111 80.7611 85.4598H80.81C80.8589 85.5086 80.9078 85.5086 81.0057 85.5573C81.0057 85.5573 81.0546 85.5573 81.0546 85.6061C81.1035 85.6548 81.1524 85.7036 81.2013 85.7523L81.2502 85.8011C81.2992 85.8498 81.397 85.9473 81.4459 85.9961C81.5926 86.1423 81.7883 86.3373 82.0329 86.5811C82.3753 86.9223 82.7177 87.3123 83.2069 87.7998C83.3536 87.9461 83.5004 88.1411 83.6961 88.2873C84.0385 88.6286 84.4298 89.0186 84.8701 89.4574C84.9679 89.5549 85.0657 89.6524 85.1636 89.7011C85.2125 89.7499 85.2125 89.7499 85.2614 89.7986C85.3103 89.8474 85.4081 89.8961 85.457 89.9449C85.506 89.9936 85.506 89.9936 85.5549 89.9936C85.6038 90.0424 85.6527 90.0911 85.7016 90.0911C85.7505 90.0911 85.7995 90.1399 85.7995 90.1399C85.8484 90.1886 85.8973 90.1886 85.9462 90.2374C85.9951 90.2374 86.044 90.2861 86.044 90.2861C86.093 90.2861 86.1419 90.3349 86.1908 90.3349C86.2397 90.3349 86.2886 90.3349 86.2886 90.3836C86.3375 90.3836 86.3865 90.4324 86.4354 90.4324C86.4843 90.4324 86.4843 90.4324 86.5332 90.4324C86.5821 90.4324 86.631 90.4324 86.68 90.4324C86.7289 90.4324 86.7289 90.4324 86.7778 90.4324C86.8267 90.4324 86.8756 90.4324 86.8756 90.4324C86.9245 90.4324 86.9735 90.4324 87.0224 90.4324C87.0713 90.4324 87.0713 90.4324 87.1202 90.4324C87.1691 90.4324 87.218 90.4324 87.267 90.3836C87.3159 90.3836 87.3159 90.3836 87.3648 90.3836C87.4137 90.3836 87.4626 90.3349 87.4626 90.3349C87.5115 90.3349 87.5115 90.3349 87.5605 90.2861C87.6094 90.2861 87.6583 90.2374 87.6583 90.2374C87.7072 90.2374 87.7072 90.1886 87.7561 90.1886C87.805 90.1886 87.854 90.1399 87.854 90.1399C87.9029 90.1399 87.9029 90.0911 87.9518 90.0911C88.0007 90.0424 88.0496 90.0424 88.0496 89.9936L88.0985 89.9449C88.1475 89.8961 88.1964 89.8961 88.2453 89.8474L88.2942 89.7986C88.3431 89.7499 88.392 89.7011 88.4899 89.6524C89.3214 88.8236 89.7128 87.4098 88.2942 86.1423C87.5115 85.4598 86.1419 84.1923 85.2125 83.266C84.87 82.9248 84.5765 82.6323 84.4787 82.3885C84.4298 82.291 84.4298 82.1935 84.4298 82.1448C84.4298 82.096 84.4787 82.096 84.4787 82.0473C84.5276 81.9985 84.5276 81.9985 84.5765 81.9498C84.5765 81.9498 84.5766 81.9498 84.6255 81.9498C84.6744 81.9498 84.6744 81.9498 84.7233 81.9498C84.7233 81.9498 84.7233 81.9498 84.7722 81.9498C84.8211 81.9498 84.8701 81.9498 84.919 81.9985C84.9679 81.9985 85.0657 82.0473 85.1146 82.096L85.1636 82.1448C85.2125 82.1935 85.2614 82.2423 85.3592 82.291C85.4081 82.291 85.4081 82.3398 85.457 82.3398C85.5549 82.4373 85.6527 82.486 85.7505 82.5835C85.8973 82.7298 86.044 82.8273 86.1908 82.9735C86.4843 83.266 86.8267 83.6073 87.218 83.8998C87.4137 84.046 87.5605 84.241 87.7561 84.436C88.1474 84.7773 88.5388 85.1673 88.9301 85.5086C89.3214 85.8498 89.7128 86.2398 90.1041 86.5323C90.2019 86.6298 90.2998 86.7273 90.4465 86.7761L90.4954 86.8248C90.5933 86.8736 90.6911 86.9223 90.8379 86.9711H90.8868C90.9846 87.0198 91.0824 87.0198 91.1803 87.0686H91.2292C91.327 87.0686 91.4248 87.1173 91.5716 87.1173C91.6205 87.1173 91.6205 87.1173 91.6694 87.1173C91.7183 87.1173 91.7673 87.1173 91.8162 87.1173C91.8651 87.1173 91.8651 87.1173 91.914 87.1173C91.9629 87.1173 92.0118 87.1173 92.0608 87.0686H92.1097C92.2075 87.0686 92.2564 87.0198 92.3543 86.9711C92.3543 86.9711 92.3543 86.9711 92.4032 86.9711C92.4521 86.9223 92.5499 86.9223 92.5988 86.8736L92.6478 86.8248C92.6967 86.7761 92.7456 86.7761 92.7945 86.7273C92.8434 86.7273 92.8434 86.6786 92.8923 86.6786C92.9413 86.6298 92.9902 86.6298 93.0391 86.5811L93.088 86.5323C93.1369 86.4836 93.1858 86.4348 93.2348 86.4348L93.2837 86.3861C93.3326 86.3373 93.3815 86.2398 93.4304 86.1911C93.5772 85.9961 93.675 85.8011 93.7728 85.6061C93.9685 85.2161 94.0174 84.7285 93.9685 84.2898C93.9685 84.1435 93.9196 83.9973 93.8707 83.851C93.7239 83.461 93.4793 83.1198 93.1369 82.7785C92.9413 82.6323 92.7456 82.4373 92.5499 82.291C92.3543 82.096 92.1586 81.9498 91.9629 81.8035C91.7673 81.6573 91.5716 81.4623 91.3759 81.316C90.9846 80.9747 90.6422 80.6822 90.2998 80.3897C90.2019 80.341 90.153 80.2435 90.0552 80.1947C89.9084 80.0485 89.7617 79.951 89.6149 79.8047C89.4193 79.6097 89.2725 79.4635 89.1258 79.366C89.0279 79.2685 88.9301 79.171 88.8812 79.1222C88.8323 79.0247 88.7834 78.976 88.7344 78.8785C88.7344 78.8297 88.7344 78.8297 88.6855 78.781C88.6855 78.7322 88.6855 78.6835 88.6855 78.6347C88.6855 78.586 88.6855 78.586 88.7344 78.5372C88.7344 78.4885 88.7834 78.4885 88.7834 78.4397C88.8323 78.391 88.8323 78.391 88.8812 78.3422C88.8812 78.3422 88.8812 78.3422 88.9301 78.3422C88.979 78.3422 88.979 78.3422 89.0279 78.3422C89.0769 78.3422 89.1258 78.3422 89.1258 78.3422C89.1747 78.3422 89.2236 78.391 89.2725 78.391C89.2725 78.391 89.3214 78.391 89.3214 78.4397C89.3704 78.4885 89.4193 78.4885 89.4682 78.5372L89.5171 78.586C89.566 78.6347 89.6639 78.6835 89.7128 78.7322C90.4954 79.366 92.2564 80.926 94.0174 82.486C94.1152 82.5348 94.1642 82.6323 94.262 82.681C94.3109 82.681 94.3109 82.7298 94.3598 82.7298C94.4087 82.7785 94.4577 82.7785 94.5066 82.8273C94.5555 82.8273 94.5555 82.876 94.6044 82.876C94.6533 82.9248 94.7022 82.9248 94.7512 82.9735C94.8001 82.9735 94.8001 83.0223 94.849 83.0223C94.8979 83.0223 94.9468 83.071 94.9957 83.071C95.0447 83.071 95.0447 83.071 95.0936 83.1198C95.1425 83.1198 95.1914 83.1685 95.2403 83.1685H95.2892C95.3871 83.1685 95.436 83.2173 95.5338 83.2173C95.5338 83.2173 95.5338 83.2173 95.5827 83.2173C95.6317 83.2173 95.7295 83.2173 95.7784 83.2173C95.8273 83.2173 95.9252 83.2173 95.9741 83.2173H96.023C96.1208 83.2173 96.1697 83.1685 96.2676 83.1685C96.3165 83.1685 96.3165 83.1685 96.3654 83.1685C96.4143 83.1685 96.4632 83.1198 96.5122 83.1198C96.5611 83.1198 96.5611 83.1198 96.61 83.071C96.6589 83.071 96.7078 83.0223 96.7567 83.0223C96.8057 83.0223 96.8057 82.9735 96.8546 82.9735C96.9035 82.9735 96.9524 82.9248 97.0013 82.876C97.0502 82.876 97.0502 82.8273 97.0992 82.8273C97.1481 82.7785 97.197 82.7785 97.2459 82.7298C97.2948 82.7298 97.2948 82.681 97.3437 82.681C97.3927 82.6323 97.4416 82.6323 97.4905 82.5835L97.5394 82.5348C97.5883 82.486 97.6372 82.4373 97.7351 82.3398C97.784 82.291 97.8329 82.1935 97.8818 82.1448C97.9307 82.0473 97.9796 81.9498 98.0286 81.8523C98.0775 81.7548 98.1264 81.6085 98.1264 81.511C98.1264 81.4135 98.1753 81.316 98.1753 81.2185C98.371 81.2185 98.371 80.9747 98.2731 80.6822Z" fill="#FF6600"/>
  <path d="M98.6645 63.1323C98.7623 63.1323 98.8112 63.1323 98.909 63.1323C98.8112 63.0829 98.7134 63.1323 98.6645 63.1323Z" fill="white"/>
</svg>
